<svg width="140" height="140" viewBox="0 0 140 140" fill="none" xmlns="http://www.w3.org/2000/svg">
<g clip-path="url(#clip0_2346_479)">
<rect width="140" height="140" transform="matrix(1 0 0 -1 0 140)" fill="#F5B2B3"/>
<path d="M181.852 41.6868C177.787 37.6201 172.961 34.3942 167.649 32.1932C162.337 29.9922 156.644 28.8594 150.894 28.8594C145.144 28.8594 139.451 29.9922 134.139 32.1932C128.827 34.3942 124.001 37.6201 119.936 41.6868L111.5 50.1227L103.064 41.6868C94.8537 33.4763 83.7178 28.8636 72.1063 28.8636C60.4948 28.8636 49.3589 33.4763 41.1484 41.6868C32.9378 49.8974 28.3252 61.0333 28.3252 72.6447C28.3252 84.2562 32.9378 95.3921 41.1484 103.603L111.5 173.954L181.852 103.603C185.918 99.5379 189.144 94.7117 191.345 89.3999C193.546 84.088 194.679 78.3945 194.679 72.6447C194.679 66.8949 193.546 61.2015 191.345 55.8896C189.144 50.5778 185.918 45.7516 181.852 41.6868Z" fill="#EF7E81"/>
</g>
<defs>
<clipPath id="clip0_2346_479">
<rect width="140" height="140" fill="white" transform="matrix(1 0 0 -1 0 140)"/>
</clipPath>
</defs>
</svg>
