<svg width="270" height="296" viewBox="0 0 270 296" fill="none" xmlns="http://www.w3.org/2000/svg">
<path d="M266 189C266 203.051 262.599 216.965 255.99 229.947C249.382 242.929 239.695 254.725 227.485 264.66C215.274 274.596 200.777 282.478 184.823 287.855C168.869 293.232 151.769 296 134.5 296C117.231 296 100.131 293.232 84.1771 287.855C68.2228 282.478 53.7264 274.596 41.5155 264.66C29.3045 254.725 19.6183 242.929 13.0098 229.947C6.40135 216.965 3 203.051 3 189L134.5 189H266Z" fill="#2F3179"/>
<path d="M0 0C74.5584 0 135 60.4416 135 135V189C60.4416 189 0 128.558 0 54V0Z" fill="#2F3179"/>
<path d="M270 0C195.442 0 135 60.4416 135 135V189C209.558 189 270 128.558 270 54V0Z" fill="#2F3179"/>
</svg>
