<svg width="403" height="131" viewBox="0 0 403 131" fill="none" xmlns="http://www.w3.org/2000/svg">
<path d="M367.5 120.199C356.376 120.199 347.678 116.741 341.407 109.824C335.136 102.907 332 93.0325 332 80.1992V31.1992H350.142V79.4492C350.142 87.7825 351.672 93.7825 354.733 97.4492C357.794 101.116 362.087 102.949 367.612 102.949C373.137 102.949 377.43 101.116 380.491 97.4492C383.552 93.7825 385.082 87.7825 385.082 79.4492V31.1992H403V80.1992C403 93.0325 399.864 102.907 393.593 109.824C387.322 116.741 378.624 120.199 367.5 120.199Z" fill="#2F2F77"/>
<path d="M266 118.199V31.1992H284.316V101.793H324V118.199H266Z" fill="#2F2F77"/>
<path d="M176 118.199V31.1992H191.028L237.346 93.8392H230.056V31.1992H248V118.199H233.084L186.654 55.5592H193.944V118.199H176Z" fill="#2F2F77"/>
<path d="M123.087 112C116.875 112 111.112 110.968 105.797 108.905C100.558 106.841 95.9923 103.937 92.1002 100.192C88.283 96.4471 85.2891 92.0525 83.1185 87.0083C81.0227 81.9641 79.9749 76.4613 79.9749 70.5C79.9749 64.5387 81.0227 59.0359 83.1185 53.9917C85.2891 48.9475 88.3204 44.5529 92.2125 40.808C96.1045 37.0631 100.67 34.1588 105.91 32.0953C111.149 30.0318 116.837 29 122.975 29C129.187 29 134.876 30.0318 140.04 32.0953C145.279 34.1588 149.808 37.0631 153.625 40.808C157.517 44.5529 160.548 48.9475 162.719 53.9917C164.89 58.9595 165.975 64.4622 165.975 70.5C165.975 76.4613 164.89 82.0023 162.719 87.1229C160.548 92.1671 157.517 96.5617 153.625 100.307C149.808 103.975 145.279 106.841 140.04 108.905C134.876 110.968 129.225 112 123.087 112ZM122.975 96.1796C126.493 96.1796 129.711 95.5681 132.63 94.3453C135.624 93.1225 138.244 91.3646 140.489 89.0718C142.735 86.779 144.456 84.0658 145.654 80.9323C146.926 77.7988 147.562 74.3214 147.562 70.5C147.562 66.6786 146.926 63.2012 145.654 60.0677C144.456 56.9342 142.735 54.221 140.489 51.9282C138.319 49.6354 135.736 47.8775 132.742 46.6547C129.749 45.4319 126.493 44.8204 122.975 44.8204C119.457 44.8204 116.201 45.4319 113.207 46.6547C110.288 47.8775 107.706 49.6354 105.461 51.9282C103.215 54.221 101.456 56.9342 100.184 60.0677C98.9862 63.2012 98.3874 66.6786 98.3874 70.5C98.3874 74.2449 98.9862 77.7224 100.184 80.9323C101.456 84.0658 103.178 86.779 105.348 89.0718C107.594 91.3646 110.213 93.1225 113.207 94.3453C116.201 95.5681 119.457 96.1796 122.975 96.1796Z" fill="#2F2F77"/>
<path d="M42.5524 120.199C36.4895 120.199 30.8383 119.11 25.5988 116.931C20.4341 114.669 15.9431 111.485 12.1257 107.379C8.30838 103.273 5.31437 98.4547 3.14371 92.9243C1.0479 87.3939 0 81.3189 0 74.6992C0 68.0794 1.0479 62.0044 3.14371 56.474C5.31437 50.9436 8.30838 46.1255 12.1257 42.0196C16.018 37.9137 20.5464 34.7714 25.7111 32.5928C30.8757 30.3304 36.5269 29.1992 42.6647 29.1992C49.476 29.1992 55.6138 30.5399 61.0778 33.2213C66.6168 35.8189 71.2575 39.6734 75 44.7848L63.3234 56.8511C60.6287 53.4155 57.6347 50.8598 54.3413 49.184C51.0479 47.4243 47.4551 46.5445 43.5629 46.5445C39.8952 46.5445 36.5269 47.2148 33.4581 48.5555C30.3892 49.8962 27.732 51.8235 25.4865 54.3373C23.241 56.8511 21.482 59.8258 20.2096 63.2613C19.012 66.6969 18.4132 70.5095 18.4132 74.6992C18.4132 78.8888 19.012 82.7015 20.2096 86.137C21.482 89.5725 23.241 92.5472 25.4865 95.061C27.732 97.5749 30.3892 99.5021 33.4581 100.843C36.5269 102.184 39.8952 102.854 43.5629 102.854C47.4551 102.854 51.0479 102.016 54.3413 100.34C57.6347 98.5804 60.6287 95.9409 63.3234 92.4215L75 104.488C71.2575 109.599 66.6168 113.496 61.0778 116.177C55.6138 118.858 49.4386 120.199 42.5524 120.199Z" fill="#2F2F77"/>
<path d="M354.203 24.6956L350.251 11.36L388.777 0L392.234 12.3478L354.203 24.6956Z" fill="#2F2F77"/>
<rect x="87" y="117" width="71" height="14" fill="#2F2F77"/>
</svg>
