<svg id="Layer_1" data-name="Layer 1" xmlns="http://www.w3.org/2000/svg" viewBox="0 0 221.15 97.21"><defs><style>.cls-1{fill:#2e3175;}</style></defs><path class="cls-1" d="M103.2,32.45v30.1c0,1.15-.1,1.25-1.22,1.25H95c-.79,0-1-.19-1-1V17c0-.81.16-.95,1-.95h7.2a1.36,1.36,0,0,1,1.26.68q7,10.05,14.1,20.11l7,10.16a1.18,1.18,0,0,0,.59.46V17.24c0-1.1,0-1.15,1.14-1.16h6.86c.89,0,1,.1,1,1V62.77c0,.88-.14,1-1,1h-7.14a1.26,1.26,0,0,1-1.15-.6q-10.45-15-21-30c-.2-.28-.4-.54-.61-.82Z"/><path class="cls-1" d="M67.27,56.33A21.44,21.44,0,1,1,88.78,35v.52A21.49,21.49,0,0,1,67.27,56.33Zm12-21.44a11.9,11.9,0,1,0,0,.81c0-.27,0-.54,0-.81Z"/><path class="cls-1" d="M175.84,30.79V17.45c0-1.31,0-1.36,1.39-1.36h6.71c.68,0,1,.16.89.86a1.22,1.22,0,0,0,0,.27c0,8.85,0,17.69.06,26.53A13.69,13.69,0,0,0,187,51.36a9,9,0,0,0,6,4,13.32,13.32,0,0,0,7.55-.51,9.46,9.46,0,0,0,5.73-6.8,18.55,18.55,0,0,0,.68-4.61c.07-8.84.06-17.65.07-26.47,0-.93,0-.93,1-.94H215c1,0,1.12.17,1.12,1.09,0,9,.12,18.12,0,27.2-.1,5.94-2,11.3-6.59,15.38a19.87,19.87,0,0,1-11.62,5.07,20.14,20.14,0,0,1-14.24-4.14c-3.8-2.8-5.86-6.73-7-11.21A24.76,24.76,0,0,1,176,43.3Z"/><path class="cls-1" d="M25.8,64.68c-5.81,0-10.65-1.36-14.84-4.6A23.34,23.34,0,0,1,2.52,47.57,26.7,26.7,0,0,1,4,28.46,21.87,21.87,0,0,1,20,16a24.17,24.17,0,0,1,16.56,2,22.84,22.84,0,0,1,5.72,4.19c.43.42.45.76,0,1.17-1.67,1.66-3.32,3.34-5,5a.89.89,0,0,1-1.22.23,1,1,0,0,1-.23-.23,15.25,15.25,0,0,0-19.5-1.25,14.66,14.66,0,0,0-5.48,10.44A17.75,17.75,0,0,0,11.72,46a13.87,13.87,0,0,0,11.73,9.47,14.47,14.47,0,0,0,12.08-3.79c.94-.83,1.13-.83,2,.06,1.56,1.58,3.09,3.17,4.66,4.76.47.47.48.81,0,1.28a24.59,24.59,0,0,1-13.47,6.68C27.58,64.63,26.41,64.64,25.8,64.68Z"/><path class="cls-1" d="M144.6,39.88V17.37c0-1.25,0-1.29,1.29-1.29h6.72c1,0,1,.09,1,1V53.76c0,1.27-.11,1.14,1.11,1.14h14.9c1.24,0,1.36.09,1.36,1.36v6.57c0,.68-.25.92-.91.92H145.49c-.74,0-.89-.16-.89-1V51.62C144.59,47.7,144.59,43.78,144.6,39.88Z"/><path class="cls-1" d="M67.26,58.5H84.81c.9,0,.91,0,.91.89v5.49c0,.58-.17.78-.76.78H49.65c-.64,0-.81-.26-.81-.84V59.27c0-.63.24-.79.83-.79C55.52,58.51,61.39,58.5,67.26,58.5Z"/><path class="cls-1" d="M189.58,13a1.86,1.86,0,0,1-.33-.41c-.56-2-1.09-4.13-1.65-6.19-.15-.54.2-.63.57-.74l7-2L207.08.18c1-.3,1-.3,1.27.68l1.5,5.58c.14.52,0,.68-.47.85l-15,4.36L190,12.92Z"/><path class="cls-1" d="M32.28,77.41h3.26V96.93H32.28Z"/><path class="cls-1" d="M59.88,96.93H56.59l-9.7-13.88V96.93H43.63V77.41h3.29L56.65,91.3V77.41h3.23Z"/><path class="cls-1" d="M67.2,91.52h3.27A2.58,2.58,0,0,0,73.18,94h.13a2.63,2.63,0,0,0,2.84-2.38s0-.07,0-.1a2.92,2.92,0,0,0-2.85-2.74,7.75,7.75,0,0,1-2.93-.64,5.22,5.22,0,0,1-3.18-5,5.92,5.92,0,0,1,5.83-6h.28a5.67,5.67,0,0,1,6,5.35c0,.08,0,.17,0,.26H76.08c-.06-1.62-1.31-2.34-2.79-2.34a2.6,2.6,0,0,0-.46,5.18h.46a7.28,7.28,0,0,1,2.9.64,5.53,5.53,0,0,1,3.18,5.25c0,3.73-2.93,5.74-6.08,5.74C70,97.13,67.3,95.18,67.2,91.52Z"/><path class="cls-1" d="M96.5,80.4H92.4V96.93H89.2V80.4H85.1v-3H96.5Z"/><path class="cls-1" d="M102.91,77.41h3.29V96.93h-3.26Z"/><path class="cls-1" d="M124,80.4H120V96.93h-3.24V80.4h-4.1v-3H124Z"/><path class="cls-1" d="M130.37,90.69V77.41h3.27V90.69c.16,2.25,2,3.26,4,3.26s4.07-1.09,4.07-3.26V77.41H145V90.69c0,4.15-3.18,6.52-7.33,6.52S130.37,94.7,130.37,90.69Z"/><path class="cls-1" d="M162.83,80.4h-4.1V96.93H155.5V80.4h-4.1v-3h11.43Z"/><path class="cls-1" d="M172.42,80.68v4.88h8.12v3.23h-8.12v4.88h9.78v3.26h-13V77.41h13v3.27Z"/></svg>