<svg width="140" height="140" viewBox="0 0 140 140" fill="none" xmlns="http://www.w3.org/2000/svg">
<rect width="140" height="140" fill="#33B8C2"/>
<circle cx="24" cy="28" r="5" fill="white"/>
<circle cx="47" cy="28" r="5" fill="white"/>
<circle cx="70" cy="28" r="5" fill="white"/>
<circle cx="93" cy="28" r="5" fill="white"/>
<circle cx="116" cy="28" r="5" fill="white"/>
<circle cx="24" cy="49" r="5" fill="white"/>
<circle cx="47" cy="49" r="5" fill="white"/>
<circle cx="70" cy="49" r="5" fill="white"/>
<circle cx="93" cy="49" r="5" fill="white"/>
<circle cx="116" cy="49" r="5" fill="white"/>
<circle cx="24" cy="70" r="5" fill="white"/>
<circle cx="47" cy="70" r="5" fill="white"/>
<circle cx="70" cy="70" r="5" fill="white"/>
<circle cx="93" cy="70" r="5" fill="white"/>
<circle cx="116" cy="70" r="5" fill="white"/>
<circle cx="24" cy="91" r="5" fill="white"/>
<circle cx="47" cy="91" r="5" fill="white"/>
<circle cx="70" cy="91" r="5" fill="white"/>
<circle cx="93" cy="91" r="5" fill="white"/>
<circle cx="116" cy="91" r="5" fill="white"/>
<circle cx="24" cy="112" r="5" fill="white"/>
<circle cx="47" cy="112" r="5" fill="white"/>
<circle cx="70" cy="112" r="5" fill="white"/>
<circle cx="93" cy="112" r="5" fill="white"/>
<circle cx="116" cy="112" r="5" fill="white"/>
</svg>
