<svg width="420" height="420" viewBox="0 0 420 420" fill="none" xmlns="http://www.w3.org/2000/svg">
<g clip-path="url(#clip0_2346_427)">
<path d="M0 140V140C38.6599 140 70 171.34 70 210V280V280C31.3401 280 0 248.66 0 210V140Z" fill="#FCC160"/>
<path d="M70 210C70 171.34 101.34 140 140 140V140V210C140 248.66 108.66 280 70 280V280V210Z" fill="#FCC160"/>
</g>
<rect width="140" height="140" fill="#33B8C2"/>
<circle cx="24" cy="28" r="5" fill="white"/>
<circle cx="47" cy="28" r="5" fill="white"/>
<circle cx="70" cy="28" r="5" fill="white"/>
<circle cx="93" cy="28" r="5" fill="white"/>
<circle cx="116" cy="28" r="5" fill="white"/>
<circle cx="24" cy="49" r="5" fill="white"/>
<circle cx="47" cy="49" r="5" fill="white"/>
<circle cx="70" cy="49" r="5" fill="white"/>
<circle cx="93" cy="49" r="5" fill="white"/>
<circle cx="116" cy="49" r="5" fill="white"/>
<circle cx="24" cy="70" r="5" fill="white"/>
<circle cx="47" cy="70" r="5" fill="white"/>
<circle cx="70" cy="70" r="5" fill="white"/>
<circle cx="93" cy="70" r="5" fill="white"/>
<circle cx="116" cy="70" r="5" fill="white"/>
<circle cx="24" cy="91" r="5" fill="white"/>
<circle cx="47" cy="91" r="5" fill="white"/>
<circle cx="70" cy="91" r="5" fill="white"/>
<circle cx="93" cy="91" r="5" fill="white"/>
<circle cx="116" cy="91" r="5" fill="white"/>
<circle cx="24" cy="112" r="5" fill="white"/>
<circle cx="47" cy="112" r="5" fill="white"/>
<circle cx="70" cy="112" r="5" fill="white"/>
<circle cx="93" cy="112" r="5" fill="white"/>
<circle cx="116" cy="112" r="5" fill="white"/>
<rect width="140" height="140" transform="translate(140 140)" fill="#FCC160"/>
<path d="M209.5 153L259.296 181.75V239.25L209.5 268L159.704 239.25V181.75L209.5 153Z" fill="#303273"/>
<g clip-path="url(#clip1_2346_427)">
<rect width="140" height="140" transform="translate(280 280)" fill="#303273"/>
<circle cx="350" cy="420" r="70" fill="#33B8C2"/>
<circle cx="350" cy="280" r="70" fill="#5B6AAB"/>
</g>
<g clip-path="url(#clip2_2346_427)">
<rect width="140" height="140" transform="translate(140 280)" fill="#5B6AAB"/>
<path d="M321.852 321.687C317.787 317.62 312.961 314.394 307.649 312.193C302.337 309.992 296.644 308.859 290.894 308.859C285.144 308.859 279.451 309.992 274.139 312.193C268.827 314.394 264.001 317.62 259.936 321.687L251.5 330.123L243.064 321.687C234.854 313.476 223.718 308.864 212.106 308.864C200.495 308.864 189.359 313.476 181.148 321.687C172.938 329.897 168.325 341.033 168.325 352.645C168.325 364.256 172.938 375.392 181.148 383.603L251.5 453.954L321.852 383.603C325.918 379.538 329.144 374.712 331.345 369.4C333.546 364.088 334.679 358.395 334.679 352.645C334.679 346.895 333.546 341.201 331.345 335.89C329.144 330.578 325.918 325.752 321.852 321.687Z" fill="#7184BD"/>
</g>
<defs>
<clipPath id="clip0_2346_427">
<rect width="140" height="140" fill="white" transform="translate(0 140)"/>
</clipPath>
<clipPath id="clip1_2346_427">
<rect width="140" height="140" fill="white" transform="translate(280 280)"/>
</clipPath>
<clipPath id="clip2_2346_427">
<rect width="140" height="140" fill="white" transform="translate(140 280)"/>
</clipPath>
</defs>
</svg>
